# xmcd CD database file
# 
# Track frame offsets:
# 	150
# 	17092
# 	31512
# 	54647
# 	67190
# 	78992
# 	96035
# 	111797
# 	130152
# 	145795
# 	164542
# 	180997
# 	205820
# 	230397
# 	250802
# 	268277
# 
# Disc length: 3762 seconds
# 
# Submitted via: Nero 5.5.9.0
# 
# Revision: 0
# Processed by: cddbd v1.4PL0 Copyright (c) Steve Scherf et al.
#
DISCID=d60eb010
DTITLE=Tommy Alverson and Boot Hill - The "HOT" of Texas - Live at The Ozona
DYEAR=1900
DGENRE=
TTITLE0=Texas Woman
TTITLE1=Invititation To The Blues
TTITLE2="Purty" Boys
TTITLE3=Not Tonight, I've Got A Heartache
TTITLE4=I Souldn't Trade Texas For The World
TTITLE5=Empty Glass
TTITLE6=What's The Matter With My Baby
TTITLE7=Rita Ballou
TTITLE8=Someday
TTITLE9=Angel Flying Too Close To The Ground
TTITLE10=Cheeseburger In Paradise
TTITLE11=I Forgot I Don't Live Here Anymore
TTITLE12=After Love
TTITLE13=Tonight He's Number One
TTITLE14=Follow Your Heart
TTITLE15=Bottle I Need Two More Like You
EXTD=
EXTT0=
EXTT1=
EXTT2=
EXTT3=
EXTT4=
EXTT5=
EXTT6=
EXTT7=
EXTT8=
EXTT9=
EXTT10=
EXTT11=
EXTT12=
EXTT13=
EXTT14=
EXTT15=
PLAYORDER=
